{
	"asset":{
		"generator":"Khronos glTF Blender I/O v4.1.63",
		"version":"2.0"
	},
	"scene":0,
	"scenes":[
		{
			"name":"Scene",
			"nodes":[
				2
			]
		}
	],
	"nodes":[
		{
			"mesh":0,
			"name":"Object_2"
		},
		{
			"children":[
				0
			],
			"name":"blahaj.obj.cleaner.materialmerger.gles"
		},
		{
			"children":[
				1
			],
			"name":"Sketchfab_model",
			"rotation":[
				-0.70710688829422,
				0,
				0,
				0.7071066498756409
			]
		}
	],
	"materials":[
		{
			"doubleSided":true,
			"name":"Material.001",
			"pbrMetallicRoughness":{
				"baseColorTexture":{
					"index":0
				},
				"metallicFactor":0,
				"roughnessFactor":0.806350827217102
			}
		}
	],
	"meshes":[
		{
			"name":"Object_0",
			"primitives":[
				{
					"attributes":{
						"POSITION":0,
						"NORMAL":1,
						"TEXCOORD_0":2
					},
					"indices":3,
					"material":0
				}
			]
		}
	],
	"textures":[
		{
			"sampler":0,
			"source":0
		}
	],
	"images":[
		{
			"mimeType":"image/png",
			"name":"Material.001_baseColor.png",
			"uri":"textures/Material.001_baseColor.png"
		}
	],
	"accessors":[
		{
			"bufferView":0,
			"componentType":5126,
			"count":803,
			"max":[
				1.6378774642944336,
				0.9320740699768066,
				1.0401129722595215
			],
			"min":[
				-1.6266834735870361,
				-0.6591179370880127,
				-1.3035730123519897
			],
			"type":"VEC3"
		},
		{
			"bufferView":1,
			"componentType":5126,
			"count":803,
			"type":"VEC3"
		},
		{
			"bufferView":2,
			"componentType":5126,
			"count":803,
			"type":"VEC2"
		},
		{
			"bufferView":3,
			"componentType":5123,
			"count":1095,
			"type":"SCALAR"
		}
	],
	"bufferViews":[
		{
			"buffer":0,
			"byteLength":9636,
			"byteOffset":0,
			"target":34962
		},
		{
			"buffer":0,
			"byteLength":9636,
			"byteOffset":9636,
			"target":34962
		},
		{
			"buffer":0,
			"byteLength":6424,
			"byteOffset":19272,
			"target":34962
		},
		{
			"buffer":0,
			"byteLength":2190,
			"byteOffset":25696,
			"target":34963
		}
	],
	"samplers":[
		{
			"magFilter":9729,
			"minFilter":9987
		}
	],
	"buffers":[
		{
			"byteLength":27888,
			"uri":"mod.bin"
		}
	]
}
